<svg width="180" height="41" viewBox="0 0 180 41" fill="none" xmlns="http://www.w3.org/2000/svg">
<path fill-rule="evenodd" clip-rule="evenodd" d="M178.663 24.5829C178.439 24.5829 178.219 24.6392 178.005 24.755C177.789 24.8707 177.627 25.0315 177.505 25.2486C177.388 25.4501 177.326 25.6787 177.325 25.9115C177.324 26.1443 177.384 26.3734 177.499 26.576C177.619 26.79 177.784 26.9539 177.996 27.0697C178.208 27.1874 178.431 27.2479 178.662 27.2479C178.894 27.2479 179.114 27.1874 179.328 27.0697C179.538 26.9539 179.706 26.79 179.824 26.576C179.941 26.364 180 26.1438 180 25.9143C180 25.6819 179.937 25.4606 179.82 25.2486C179.706 25.0384 179.533 24.8665 179.322 24.755C179.12 24.6426 178.894 24.5834 178.663 24.5829Z" fill="#969696"/>
<path fill-rule="evenodd" clip-rule="evenodd" d="M178.663 24.8226C178.848 24.8226 179.027 24.8708 179.201 24.9629C179.377 25.0613 179.511 25.1934 179.609 25.3685C179.706 25.5437 179.757 25.727 179.757 25.9144C179.757 26.1019 179.707 26.2842 179.613 26.4562C179.518 26.6277 179.377 26.7684 179.205 26.8618C179.04 26.956 178.853 27.0056 178.663 27.0056C178.473 27.0056 178.286 26.956 178.121 26.8618C177.949 26.7698 177.808 26.6286 177.717 26.4562C177.619 26.2842 177.568 26.1019 177.568 25.9144C177.568 25.727 177.619 25.5447 177.717 25.3685C177.815 25.1924 177.952 25.0602 178.125 24.9629C178.3 24.8708 178.48 24.8226 178.663 24.8226Z" fill="white"/>
<path fill-rule="evenodd" clip-rule="evenodd" d="M178.076 26.6549H178.319V26.0271H178.456C178.536 26.0271 178.598 26.0435 178.64 26.0814C178.7 26.1295 178.782 26.2412 178.884 26.4214L179.018 26.656H179.3L179.123 26.3661C179.063 26.2617 178.992 26.1639 178.911 26.0742C178.876 26.0407 178.835 26.0143 178.79 25.9964C178.901 25.9926 179.008 25.9469 179.088 25.8684C179.133 25.824 179.166 25.7687 179.184 25.7078C179.202 25.647 179.205 25.5825 179.191 25.5205C179.177 25.4586 179.147 25.4012 179.105 25.3538C179.063 25.3064 179.009 25.2706 178.949 25.2497C178.828 25.2172 178.703 25.2037 178.578 25.2098H178.076V26.6549Z" fill="#969696"/>
<path fill-rule="evenodd" clip-rule="evenodd" d="M178.319 25.835V25.4003H178.586C178.665 25.3963 178.745 25.4042 178.822 25.4239C178.861 25.4397 178.895 25.4659 178.92 25.4998C178.946 25.5315 178.958 25.5715 178.958 25.6115C178.959 25.6421 178.953 25.6726 178.941 25.7005C178.928 25.7283 178.908 25.7526 178.884 25.7715C178.836 25.8114 178.742 25.834 178.606 25.834H178.319V25.835Z" fill="white"/>
<path fill-rule="evenodd" clip-rule="evenodd" d="M119.656 24.0965C119.87 24.2327 120.038 24.4283 120.038 24.7008V34.2382C120.038 34.5106 119.87 34.7062 119.656 34.8425H125.759V32.5779C125.529 32.8801 125.253 33.0603 124.701 33.0603H122.063V24.7008C122.063 24.4283 122.233 24.2327 122.447 24.0965H119.656ZM158.78 34.8425C158.565 34.7062 158.397 34.5106 158.397 34.2382V24.7008C158.397 24.4283 158.565 24.2327 158.78 24.0965H155.997C156.213 24.2327 156.381 24.4283 156.381 24.7008V34.2382C156.381 34.5106 156.213 34.7062 155.997 34.8425H158.78ZM127.843 24.0965C128.057 24.2327 128.227 24.4283 128.227 24.7008V34.2382C128.227 34.5106 128.057 34.7062 127.843 34.8425H133.947V32.5779C133.716 32.8801 133.441 33.0603 132.889 33.0603H130.252V24.7008C130.252 24.4283 130.42 24.2327 130.634 24.0965H127.843ZM7.23294 26.4491C7.96217 26.4491 8.32679 26.6888 8.63098 27.0872V24.0965H0C0.283705 24.2768 0.506982 24.5369 0.506982 24.8944V40.9457H3.18118V32.9426H5.65259C6.22 32.9426 6.56413 33.0829 6.88778 33.3809V30.1526C6.56413 30.4507 6.22 30.591 5.65259 30.591H3.18118V26.4501H7.23294V26.4491ZM168.272 34.8425V32.5779C168.041 32.8801 167.766 33.0603 167.214 33.0603H164.147V30.3134H166.018C166.446 30.3134 166.708 30.4199 166.954 30.6453V28.2005C166.708 28.4268 166.446 28.5323 166.018 28.5323H164.147V25.8755H167.214C167.766 25.8755 168.042 26.0578 168.272 26.36V24.0955H161.738C161.952 24.2317 162.123 24.4273 162.123 24.6997V34.2372C162.123 34.5096 161.952 34.7052 161.738 34.8414H168.272V34.8425ZM153.543 34.8404C153.312 34.6745 153.113 34.3887 152.991 33.4977C152.76 31.8374 151.719 30.1311 149.954 29.7388C151.196 29.4367 151.551 28.517 151.551 27.25C151.551 25.2876 150.033 23.8538 148.114 23.8538C147.378 23.8538 146.78 24.0955 146.412 24.0955C146.136 24.0955 145.906 24.0197 145.676 23.8538V34.2382C145.676 34.5086 145.508 34.7042 145.294 34.8404H148.085C147.871 34.7042 147.701 34.5086 147.701 34.2382V30.5254C149.771 30.9771 151.029 32.6373 151.029 34.1317C151.032 34.262 151.009 34.3917 150.962 34.5132C150.914 34.6347 150.843 34.7455 150.753 34.8394H153.543V34.8404Z" fill="#969696"/>
<path fill-rule="evenodd" clip-rule="evenodd" d="M147.704 25.8253C147.84 25.7493 147.995 25.7132 148.151 25.7209C149.068 25.7209 149.653 26.3989 149.653 27.2592C149.653 28.1349 149.069 28.7976 148.151 28.7976C147.995 28.8057 147.84 28.7695 147.704 28.6931V25.8253Z" fill="#F4F4F4"/>
<path fill-rule="evenodd" clip-rule="evenodd" d="M47.295 34.8425C47.0799 34.7062 46.9109 34.5106 46.9109 34.2382V24.7008C46.9109 24.4283 47.0799 24.2327 47.295 24.0965H44.5122C44.7273 24.2327 44.8963 24.4283 44.8963 24.7008V34.2382C44.8963 34.5106 44.7273 34.7062 44.5122 34.8425H47.295ZM86.2865 34.8425V32.5779C86.056 32.8801 85.7805 33.0603 85.2285 33.0603H82.162V30.3134H84.0322C84.4614 30.3134 84.7225 30.4199 84.9683 30.6453V28.2005C84.7225 28.4268 84.4624 28.5323 84.0322 28.5323H82.162V25.8755H85.2285C85.7805 25.8755 86.0571 26.0578 86.2865 26.36V24.0955H79.7541C79.9682 24.2317 80.1382 24.4273 80.1382 24.6997V34.2372C80.1382 34.5096 79.9692 34.7052 79.7541 34.8414H86.2865V34.8425ZM142.973 34.8425V32.5779C142.741 32.8801 142.467 33.0603 141.915 33.0603H138.847V30.3134H140.719C141.147 30.3134 141.409 30.4199 141.653 30.6453V28.2005C141.409 28.4268 141.147 28.5323 140.719 28.5323H138.847V25.8755H141.915C142.467 25.8755 142.742 26.0578 142.973 26.36V24.0955H136.44C136.654 24.2317 136.822 24.4273 136.822 24.6997V34.2372C136.822 34.5096 136.654 34.7052 136.44 34.8414H142.973V34.8425ZM77.6094 34.8404C77.379 34.6745 77.1803 34.3887 77.0574 33.4977C76.8269 31.8374 75.7843 30.1311 74.0206 29.7388C75.263 29.4367 75.6153 28.517 75.6153 27.25C75.6153 25.2876 74.0974 23.8538 72.1801 23.8538C71.4437 23.8538 70.8456 24.0955 70.4779 24.0955C70.2024 24.0955 69.9719 24.0197 69.7425 23.8538V34.2382C69.7425 34.5086 69.5735 34.7042 69.3584 34.8404H72.1494C71.9353 34.7042 71.7653 34.5086 71.7653 34.2382V30.5254C73.8352 30.9771 75.0929 32.6373 75.0929 34.1317C75.096 34.262 75.0732 34.3916 75.026 34.5131C74.9787 34.6345 74.9078 34.7454 74.8174 34.8394H77.6094V34.8404Z" fill="#969696"/>
<path fill-rule="evenodd" clip-rule="evenodd" d="M71.7705 25.8253C71.9058 25.7491 72.0599 25.7129 72.215 25.7208C73.1347 25.7208 73.7175 26.3988 73.7175 27.2591C73.7175 28.1348 73.1347 28.7975 72.215 28.7975C72.0599 28.8058 71.9057 28.7696 71.7705 28.693V25.8253Z" fill="#F4F4F4"/>
<path fill-rule="evenodd" clip-rule="evenodd" d="M30.7763 34.8404C30.5459 34.6745 30.3472 34.3887 30.2243 33.4977C29.9939 31.8374 28.9512 30.1311 27.1875 29.7388C28.4299 29.4367 28.7832 28.517 28.7832 27.25C28.7832 25.2876 27.2654 23.8538 25.3481 23.8538C24.6127 23.8538 24.0145 24.0955 23.6458 24.0955C23.3693 24.0955 23.1399 24.0197 22.9094 23.8538V34.2382C22.9094 34.5086 22.7404 34.7042 22.5264 34.8404H25.3173C25.1022 34.7042 24.9333 34.5086 24.9333 34.2382V30.5254C27.0032 30.9771 28.2609 32.6373 28.2609 34.1317C28.2638 34.262 28.2409 34.3917 28.1934 34.5132C28.146 34.6347 28.0749 34.7455 27.9844 34.8394H30.7763V34.8404Z" fill="#969696"/>
<path fill-rule="evenodd" clip-rule="evenodd" d="M24.937 25.8252C25.0727 25.7491 25.2272 25.7129 25.3825 25.7208C26.3023 25.7208 26.8851 26.3988 26.8851 27.2591C26.8851 28.1348 26.3033 28.7975 25.3825 28.7975C25.2271 28.8059 25.0725 28.7696 24.937 28.693V25.8252Z" fill="#F4F4F4"/>
<path fill-rule="evenodd" clip-rule="evenodd" d="M99.564 32.3045C99.1882 32.3045 98.9444 32.2184 98.6801 31.8927V35.0678C98.9444 34.7421 99.1882 34.656 99.564 34.656H102.679V37.8024C102.679 38.3329 100.752 38.6064 100.156 38.6064C96.8417 38.6064 94.4492 35.7601 94.4492 32.5636C94.4492 29.409 96.8632 26.8209 100.156 26.8209C101.416 26.8209 102.628 27.3207 103.579 27.8656V24.4713C103.532 24.578 103.455 24.6683 103.356 24.7304C103.258 24.7924 103.143 24.8235 103.027 24.8196C102.827 24.8196 102.257 24.712 101.77 24.626C101.275 24.5324 100.772 24.481 100.268 24.4724C95.6024 24.4724 92.0156 28.0847 92.0156 32.5656C92.0156 37.0465 95.6024 40.959 100.268 40.959C102.765 40.959 105.065 39.8723 105.065 39.3111V32.3075H99.564V32.3045ZM45.8455 17.5016V14.1945C45.3068 14.599 45.1009 14.6482 44.049 14.6482H39.7638V2.52671C39.7638 1.49124 39.8406 1.18808 40.3025 0.683145H36.1196C36.5826 1.18808 36.685 1.49124 36.685 2.52671V15.6581C36.685 16.7191 36.5826 16.9967 36.1196 17.5016H45.8455ZM60.4302 13.9394L61.4308 16.3135C61.5076 16.4897 61.5588 16.6915 61.5588 16.8441C61.5588 17.0715 61.5076 17.223 61.2762 17.5006H65.8697C65.1763 16.8441 64.74 16.2132 64.3303 15.3037L57.4528 0L50.5763 15.3037C50.1656 16.2132 49.7293 16.8441 49.0369 17.5006H53.6305C53.399 17.223 53.3222 17.0715 53.3222 16.8441C53.3222 16.6925 53.3734 16.4907 53.4502 16.3135L54.5021 13.9394H60.4302Z" fill="#969696"/>
<path fill-rule="evenodd" clip-rule="evenodd" d="M57.4526 6.81812L59.3003 11.2376H55.605L57.4526 6.81812Z" fill="#F4F4F4"/>
<path fill-rule="evenodd" clip-rule="evenodd" d="M70.6141 11.042V7.0937C70.1625 7.61092 69.9003 7.70823 69.1393 7.70823H65.1899V11.6238C65.6416 11.1383 65.9038 11.042 66.6648 11.042H70.6141ZM88.7436 11.042C88.7436 11.042 89.1953 6.57647 88.7436 7.0937C88.2919 7.61092 88.0297 7.70823 87.2687 7.70823H83.3194V11.6238C83.7711 11.1383 84.0333 11.042 84.7943 11.042H88.7436Z" fill="#969696"/>
<path fill-rule="evenodd" clip-rule="evenodd" d="M72.3102 0.683111V3.96569C72.7977 3.66253 73.3877 3.53654 74.3115 3.53654H78.52L78.2639 3.99129L77.8276 4.74921C77.6228 5.10256 77.4169 5.48152 77.0062 6.21382L70.8477 17.5016H83.3706V14.1176C82.8063 14.5468 82.3188 14.6481 81.0866 14.6481H75.9031C76.4072 13.8552 76.8864 13.0467 77.3401 12.2239L83.6523 0.683111H72.3102ZM91.8664 0.328735V15.657C91.8664 16.7437 91.7886 16.9956 91.3266 17.5006H94.8438C97.7423 17.5006 98.9488 17.2476 100.181 16.3391C101.669 15.278 102.492 13.6362 102.492 11.7425C102.492 10.0505 101.797 8.61148 100.592 7.77778C101.131 6.99528 101.336 6.36437 101.336 5.42927C101.336 2.47444 99.0533 0.328735 95.8454 0.328735C95.2926 0.342717 94.7424 0.410288 94.2026 0.530502L93.4324 0.707686C93.2286 0.757872 93.0227 0.783483 92.8158 0.783483C92.4307 0.782459 92.2771 0.707691 91.8664 0.328735Z" fill="#969696"/>
<path fill-rule="evenodd" clip-rule="evenodd" d="M94.9429 14.6226V3.43524C95.4314 3.30824 95.6373 3.25806 95.9456 3.25806C97.2801 3.25806 98.3576 4.31913 98.3576 5.63217C98.3576 6.76801 97.741 7.55152 96.303 8.28383C98.4078 9.09193 99.3316 10.1018 99.3316 11.6422C99.3316 12.5773 98.9219 13.4346 98.2295 13.9405C97.5351 14.4465 97.023 14.5725 95.3812 14.597C95.2768 14.6226 95.1487 14.6226 94.9429 14.6226Z" fill="#F4F4F4"/>
<path fill-rule="evenodd" clip-rule="evenodd" d="M114.119 17.9738C119.097 17.9738 123.152 14.0593 123.152 9.21071C123.152 4.36212 119.123 0.421997 114.144 0.421997C109.191 0.421997 105.162 4.36212 105.162 9.21071C105.162 14.0593 109.191 17.9738 114.119 17.9738Z" fill="#969696"/>
<path fill-rule="evenodd" clip-rule="evenodd" d="M114.145 14.9442C110.936 14.9442 108.319 12.3683 108.319 9.21173C108.319 6.05513 110.936 3.47925 114.145 3.47925C117.377 3.47925 119.97 6.05513 119.996 9.21173C119.996 12.3929 117.377 14.9442 114.145 14.9442Z" fill="#F4F4F4"/>
<path fill-rule="evenodd" clip-rule="evenodd" d="M129.692 6.71882L126.997 2.199C126.794 1.87023 126.639 1.4667 126.639 1.26391C126.639 0.986347 126.715 0.860367 126.997 0.684204H121.916C122.481 1.06316 122.867 1.4923 123.533 2.57796L128.152 9.82626V15.6591C128.152 16.7202 128.076 16.9977 127.614 17.5027H131.797C131.308 16.9977 131.233 16.7202 131.233 15.6591V9.82626L135.852 2.57796C136.52 1.4923 136.904 1.06316 137.468 0.684204H132.387C132.669 0.860367 132.747 0.987369 132.747 1.23932C132.747 1.4667 132.594 1.84565 132.387 2.20002L129.692 6.71882ZM117.729 34.8425C117.468 34.5896 117.26 34.287 117.117 33.9524L112.732 24.0965L108.35 33.9524C108.207 34.2872 107.999 34.5898 107.737 34.8425H110.544C110.419 34.707 110.351 34.5289 110.353 34.3447C110.367 34.0723 110.595 33.5284 110.767 33.1362L111.203 32.0659H114.261L114.698 33.1362C114.87 33.5284 115.098 34.0723 115.112 34.3447C115.114 34.529 115.046 34.7072 114.921 34.8425H117.729Z" fill="#969696"/>
<path fill-rule="evenodd" clip-rule="evenodd" d="M111.937 30.2643L112.732 28.3019L113.531 30.2643H111.937Z" fill="white"/>
<path fill-rule="evenodd" clip-rule="evenodd" d="M171.304 34.9726V32.5903C171.304 32.5903 171.386 32.9067 172.242 33.1904C173.369 33.5663 175.208 33.3041 175.208 31.9163C175.208 30.7139 173.705 29.8136 173.069 29.364C172.431 28.9144 171.304 27.9014 171.304 26.5874C171.304 24.6752 172.992 24.0371 174.157 24.0371C174.906 24.0371 175.507 24.4488 175.507 24.4488V26.5495C175.507 26.5495 175.242 25.7609 174.306 25.7609C173.48 25.7609 173.219 26.063 173.219 26.6632C173.219 26.9633 173.405 27.3371 175.131 28.5754C176.857 29.8136 177.007 31.014 177.007 31.8405C177.007 32.8903 176.331 34.9736 173.292 34.9736H171.304V34.9726ZM177.12 38.7437V36.7936H107.932V38.7437H177.12ZM86.0187 38.7437V36.7936H11.8765V38.7437H86.0187ZM49.7977 24.1232V26.5218C49.9329 26.3078 50.1295 26.1378 50.4009 26.1378H51.8V34.2392C51.8 34.5117 51.632 34.7073 51.417 34.8435H54.1997C53.9857 34.7073 53.8167 34.5117 53.8167 34.2392V26.1378H55.2168C55.4882 26.1378 55.6848 26.3078 55.82 26.5218V24.1232H49.7977ZM39.0988 24.0965C39.3139 24.2327 39.4829 24.4284 39.4829 24.7008V30.8378L33.5364 24.0986V34.2403C33.5364 34.5106 33.3674 34.7063 33.1533 34.8425H35.9361C35.721 34.7063 35.552 34.5106 35.552 34.2403V28.8273L41.4986 35.4427V24.7008C41.4986 24.4284 41.6675 24.2327 41.8826 24.0965H39.0988ZM11.6348 30.8655C11.6348 30.8337 11.6348 30.8962 11.6348 30.8655V30.8655ZM19.4648 30.8655C19.4658 30.8962 19.4648 30.8337 19.4648 30.8655V30.8655Z" fill="#969696"/>
<path fill-rule="evenodd" clip-rule="evenodd" d="M19.8697 24.0966H17.0869C17.302 24.2328 17.5089 24.4284 17.5089 24.7008V30.8666C17.5089 31.9225 16.6076 32.8525 15.5496 32.8525C14.4926 32.8525 13.6333 31.9225 13.6333 30.8666V24.7008C13.6333 24.4284 13.7982 24.2328 14.0123 24.0966H11.2295C11.4436 24.2328 11.6341 24.4284 11.6341 24.7008V30.8666C11.6341 33.0174 13.3977 34.8333 15.5486 34.8333C17.7004 34.8333 19.4641 33.0174 19.4641 30.8666V24.7008C19.4651 24.4284 19.6546 24.2328 19.8697 24.0966ZM66.893 24.0966H64.1113C64.3253 24.2328 64.5332 24.4284 64.5332 24.7008V30.8666C64.5332 31.9225 63.6319 32.8525 62.575 32.8525C61.517 32.8525 60.6587 31.9225 60.6587 30.8666V24.7008C60.6587 24.4284 60.8236 24.2328 61.0376 24.0966H58.2549C58.4689 24.2328 58.6604 24.4284 58.6604 24.7008V30.8666C58.6604 33.0174 60.4241 34.8333 62.575 34.8333C64.7258 34.8333 66.4895 33.0174 66.4895 30.8666V24.7008C66.4884 24.4284 66.679 24.2328 66.893 24.0966Z" fill="#969696"/>
</svg>
