<svg width="180" height="34" viewBox="0 0 180 34" fill="none" xmlns="http://www.w3.org/2000/svg">
<path fill-rule="evenodd" clip-rule="evenodd" d="M0 21.8216V0.000976562H11.4319V3.36519H4.65088V8.9404H11.1423V12.3056H4.65088V21.8216H0ZM19.7638 20.2836H19.6667C18.795 21.6297 17.6318 22.2063 16.0818 22.2063C14.0469 22.2063 12.2064 20.9567 12.2064 18.8431V6.63395H16.4696V17.2087C16.4696 18.5529 16.7601 19.5152 18.1157 19.5152C19.4714 19.5152 19.7629 18.5529 19.7629 17.2087V6.63395H24.026V18.8421C24.026 19.8044 24.1232 20.8612 24.2194 21.8216H19.7629V20.2836H19.7638ZM29.7429 6.63395V8.55663C30.5184 6.82679 31.9703 6.24921 33.7146 6.24921V10.0936C29.9363 9.80532 29.9363 12.0163 29.9363 13.5543V21.8216H25.577V6.63395H29.7429ZM38.8484 8.1719H38.9456C39.7211 6.73036 40.8833 6.24921 42.5305 6.24921C44.5654 6.24921 46.4059 7.49886 46.4059 9.61343V21.8216H42.0465V11.3442C42.0465 9.99816 41.8522 8.9404 40.4966 8.9404C39.0428 8.9404 38.8494 9.99721 38.8494 11.3442V21.8216H34.5863V6.63395H38.8494V8.1719H38.8484ZM48.0521 6.63395H52.3152V21.8216H48.0521V6.63395ZM48.0521 0.000976562H52.3152V3.36519H48.0521V0.000976562ZM52.8963 6.63395H54.5425V4.13465L58.9019 2.30839V6.63395H61.1302V9.2287H58.9019V17.4006C58.9019 18.5529 58.9019 19.3233 60.2585 19.3233C60.549 19.3233 60.8396 19.3233 61.0339 19.2259V21.8216C60.4528 21.919 59.8717 22.0135 58.8057 22.0135C55.1246 22.0135 54.5425 19.5152 54.5425 18.6502V9.2287H52.8963V6.63395ZM69.3659 20.2836H69.2687C68.4942 21.6297 67.331 22.2063 65.6839 22.2063C63.6499 22.2063 61.8094 20.9567 61.8094 18.8431V6.63395H66.1688V17.2087C66.1688 18.5529 66.3622 19.5152 67.7188 19.5152C69.0753 19.5152 69.3659 18.5529 69.3659 17.2087V6.63395H73.6281V18.8421C73.6281 19.8044 73.7253 20.8612 73.8215 21.8216H69.3659V20.2836ZM79.9251 6.63395V8.55663H80.0223C80.7978 6.82679 82.2506 6.24921 83.9949 6.24921V10.0936C80.2167 9.80532 80.1195 12.0163 80.1195 13.5543V21.8216H75.8573V6.63395H79.9251Z" fill="#969696"/>
<path fill-rule="evenodd" clip-rule="evenodd" d="M88.1603 14.9013C88.1603 16.7285 88.1603 19.4187 90.098 19.4187C91.648 19.4187 91.9395 17.9772 91.9395 16.7285H96.2989C96.2008 18.3619 95.6206 19.708 94.6508 20.6684C93.5857 21.6306 92.1329 22.2063 90.098 22.2063C84.5764 22.2063 83.801 18.843 83.801 14.0363C83.801 9.80625 84.3821 6.25015 90.098 6.25015C95.9102 6.25015 96.4923 9.99909 96.3951 14.9013H88.1603ZM92.0348 12.4974C92.0348 11.0549 92.1329 8.94037 90.0971 8.94037C88.0631 8.94037 88.1594 11.2478 88.1594 12.4974H92.0348ZM104.049 21.8216V0.000954134H112.187C115.673 0.000954134 118.581 1.05776 118.581 5.67163C118.581 8.17092 117.321 9.99718 114.801 10.4783V10.5748C118.096 10.9585 118.967 13.074 118.967 16.0535C118.967 21.6287 114.125 21.8216 112.187 21.8216H104.049ZM108.601 18.4583H111.217C112.187 18.4583 114.318 18.4583 114.318 15.3815C114.318 13.4588 113.64 12.3055 111.316 12.3055H108.602V18.4583H108.601ZM108.601 8.94037H111.702C112.67 8.94037 114.125 8.26734 114.125 6.15277C114.125 4.5184 112.962 3.36517 111.412 3.36517H108.602V8.94037H108.601ZM124.005 6.63393V8.55661H124.103C124.878 6.82677 126.331 6.24919 128.076 6.24919V10.0936C124.297 9.80529 124.199 12.0163 124.199 13.5542V21.8216H119.937V6.63393H124.005ZM140.476 19.034C140.476 19.9963 140.669 20.9567 140.765 21.8216H136.696L136.503 19.8044C135.533 21.4378 134.275 22.2063 132.434 22.2063C129.429 22.2063 128.364 19.9972 128.364 17.3041C128.364 12.2101 132.337 12.0172 136.31 12.1137V10.9595C136.31 9.61437 136.116 8.65303 134.566 8.65303C133.111 8.65303 132.918 9.80625 132.918 10.9595H128.752C128.752 9.13322 129.334 7.97999 130.302 7.30695C131.272 6.53845 132.725 6.25015 134.372 6.25015C139.797 6.25015 140.476 8.65398 140.476 11.4416V19.034ZM132.628 17.1113C132.628 18.1681 132.725 19.5151 134.178 19.5151C136.696 19.5151 136.31 16.15 136.31 14.5156C134.178 14.612 132.628 14.4201 132.628 17.1113ZM145.901 8.17187H145.997C146.869 6.73034 148.032 6.24919 149.583 6.24919C151.714 6.24919 153.457 7.49884 153.457 9.61341V21.8216H149.192V11.3442C149.192 9.99814 148.903 8.94037 147.546 8.94037C146.19 8.94037 145.9 9.99718 145.9 11.3442V21.8216H141.636V6.63393H145.9V8.17187H145.901ZM162.756 21.8216V20.1882H162.658C161.884 21.6297 160.72 22.2054 159.074 22.2054C154.617 22.2054 154.715 17.3032 154.715 14.1309C154.715 11.054 154.617 6.24824 158.977 6.24824C160.527 6.24824 161.593 6.72843 162.465 8.0745V0H166.824V21.8206H162.756V21.8216ZM162.465 14.1318C162.465 11.0549 162.563 8.94037 160.819 8.94037C158.881 8.94037 158.977 11.0549 158.977 14.1318C158.977 17.8798 159.269 19.5151 160.819 19.5151C162.271 19.5151 162.465 17.8798 162.465 14.1318ZM172.445 16.9194C172.347 17.6879 172.445 18.3609 172.638 18.8421C172.832 19.3232 173.316 19.5151 174.188 19.5151C175.06 19.5151 175.736 18.9385 175.736 17.9772C175.736 14.7084 168.18 15.4779 168.18 10.5757C168.18 7.30696 171.474 6.25015 174.283 6.25015C177.19 6.25015 179.806 7.69264 179.613 10.9604H175.447C175.447 9.90363 175.253 9.32701 174.962 9.03775C174.67 8.74945 174.381 8.65398 173.897 8.65398C172.927 8.65398 172.444 9.32701 172.444 10.2874C172.444 12.6903 180 12.5948 180 17.497C180 20.1891 177.772 22.2073 174.188 22.2073C170.505 22.2073 167.987 21.2469 168.181 16.9213H172.445V16.9194ZM0.775879 26.6283H2.13247V32.8765H0.775879V26.6283ZM11.3361 26.6283H13.2728L16.8577 31.435V26.6283H18.2143V32.8765H16.2766L12.5955 27.9744V32.8765H11.3361V26.6283ZM32.7461 26.6283V27.686H30.3245V32.8765H28.9679V27.686H26.5453V26.6283H32.7461ZM46.1148 27.686H42.4337V29.1266H45.9214V30.1844H42.4337V31.9142H46.2119V32.8765H41.0771V26.6283H46.1148V27.686ZM55.125 26.6283H58.9032C60.2598 26.6283 61.3259 27.1094 61.3259 28.3581C61.3259 29.4149 60.5504 29.8961 59.5825 29.8961V29.9915C61.0353 29.9915 61.1325 30.6646 61.2287 31.8188C61.2287 32.2999 61.3259 32.6837 61.423 32.8756H59.8731C59.7759 32.6837 59.7759 32.299 59.7759 31.9133C59.6787 30.6636 59.3882 30.4717 58.0325 30.4717H56.4826V32.8756H55.126V26.6283H55.125ZM56.4816 29.4159H58.3221C59.1938 29.4159 59.8721 29.3185 59.8721 28.551C59.8721 27.7834 59.1938 27.686 58.4193 27.686H56.4816V29.4159ZM70.238 26.6283H72.2729L75.8567 31.435V26.6283H77.1162V32.8765H75.1785L71.4974 27.9744V32.8765H70.238V26.6283ZM88.6443 26.6283H90.3876L93.6819 32.8765H91.9386L91.2603 31.5305H87.5782L86.8999 32.8765H85.4471L88.6443 26.6283ZM90.7763 30.4736L89.4197 27.7834L88.1603 30.4736H90.7763ZM107.536 26.6283V27.686H105.114V32.8765H103.757V27.686H101.337V26.6283H107.536ZM116.062 26.6283H117.416V32.8765H116.062V26.6283ZM130.012 26.4364C132.337 26.4364 133.694 27.5887 133.694 29.7997C133.694 32.0107 132.337 33.0684 130.012 33.0684C127.686 33.0684 126.331 32.0116 126.331 29.7997C126.331 27.5877 127.686 26.4364 130.012 26.4364ZM130.012 32.0116C131.367 32.0116 132.239 31.2431 132.239 29.8006C132.239 28.2627 131.367 27.4942 130.012 27.4942C128.656 27.4942 127.784 28.2627 127.784 29.8006C127.783 31.2431 128.656 32.0116 130.012 32.0116ZM142.413 26.6283H144.446L148.031 31.435V26.6283H149.29V32.8765H147.449L143.768 27.9744H143.672V32.8765H142.413V26.6283ZM160.819 26.6283H162.658L165.856 32.8765H164.208L163.434 31.5305H159.848L159.171 32.8765H157.621L160.819 26.6283ZM162.95 30.4736L161.593 27.7834L160.334 30.4736H162.95ZM174.189 26.6283H175.544V31.9142H179.031V32.8765H174.189V26.6283Z" fill="#969696"/>
</svg>
