<svg width="180" height="22" viewBox="0 0 180 22" fill="none" xmlns="http://www.w3.org/2000/svg">
<path fill-rule="evenodd" clip-rule="evenodd" d="M3.90524 1.31127H12.0914L9.44773 15.0664H17.3947L16.1311 21.6397H0L3.90524 1.31127ZM20.9656 5.85151H32.803L31.9807 10.1293H26.3874L26.091 11.6787H31.1647L30.3858 15.73H25.3132L24.9967 17.3725H30.7339L29.9148 21.6397H17.9334L20.9656 5.85151ZM35.2488 5.85151H42.1354L42.909 11.5729C42.982 11.9888 43.0498 12.4947 43.1111 13.0947C43.1598 13.7192 43.1439 14.4589 43.0603 15.313H43.181C43.7271 13.8599 44.2647 12.6545 44.7928 11.6977L47.898 5.85257H54.6522L44.8881 21.6397H38.9688L35.2488 5.85151ZM57.0409 5.85151H63.483L60.4498 21.6397H54.0077L57.0409 5.85151ZM69.3863 11.0172H65.8557L66.8495 5.85151H80.2692L79.2775 11.0172H75.7289L73.6885 21.6397H67.3459L69.3863 11.0172ZM88.4247 10.56H82.2451L83.1499 5.85151H99.4377L89.6576 16.7777H96.4712L95.543 21.6397H78.3906L88.4247 10.56ZM14.7997 2.74637L13.8673 0.105832H15.3659L15.5321 0.697437C15.5903 0.908045 15.6347 1.12077 15.6633 1.33562C15.6961 1.20967 15.7363 1.09961 15.7882 1.00224C15.8305 0.910164 15.876 0.820208 15.9237 0.732367L16.2581 0.106889H17.9101L16.1935 2.77177L15.9035 4.62279H14.4991L14.7997 2.74637ZM20.5041 4.74449C19.958 4.74449 19.5135 4.56775 19.1706 4.21427C18.7917 3.81316 18.5991 3.28294 18.5907 2.62677C18.5907 1.94627 18.7642 1.36736 19.1124 0.88159C19.5368 0.301625 20.0988 0.00740832 20.7973 0C21.3878 0.00529166 21.8535 0.200026 22.1953 0.586317C22.5403 0.975783 22.7139 1.48696 22.7171 2.11666C22.7171 2.79611 22.5435 3.37713 22.1953 3.86079C21.7709 4.44605 21.2079 4.74026 20.5041 4.74449ZM20.7137 1.49542C20.6086 1.4949 20.505 1.51939 20.4113 1.56688C20.3177 1.61436 20.2366 1.68346 20.175 1.76847C20.03 1.94521 19.957 2.17487 19.957 2.45533C19.957 2.69028 20.0162 2.88078 20.1337 3.02577C20.2427 3.175 20.3962 3.24802 20.592 3.24802C20.6998 3.2471 20.8057 3.21981 20.9005 3.16852C20.9953 3.11723 21.0762 3.04352 21.1359 2.9538C21.2784 2.75186 21.3529 2.50982 21.3487 2.26271C21.3434 2.032 21.2852 1.84679 21.1719 1.70497C21.1149 1.6394 21.0445 1.58677 20.9655 1.55063C20.8864 1.51449 20.8006 1.49566 20.7137 1.49542ZM26.0815 0.105832L25.7439 2.30081C25.6889 2.60137 25.6624 2.80881 25.6624 2.92205C25.6624 3.16652 25.7577 3.29035 25.9492 3.29035C26.091 3.29035 26.1895 3.21415 26.2487 3.06069C26.3006 2.90724 26.3482 2.68181 26.3906 2.38336L26.7398 0.104774H28.1336L27.7431 2.62148C27.6648 3.19193 27.5325 3.63219 27.3452 3.9444C27.0086 4.47039 26.5345 4.73497 25.9207 4.74344C24.838 4.72227 24.2887 4.17406 24.275 3.09244C24.275 2.84162 24.313 2.48919 24.3903 2.03623L24.6898 0.104774H26.0815V0.105832ZM29.3539 0.180972H30.0249V1.91558H29.3539V0.180972ZM31.896 0.105832H33.3015L32.7956 3.2332H33.982L33.765 4.62173H31.1943L31.896 0.105832ZM35.869 0.105832H37.2776L36.7717 3.2332H37.9581L37.7401 4.62173H35.1726L35.869 0.105832ZM42.6899 0.105832H44.0975L43.5916 3.2332H44.778L44.56 4.62173H41.9914L42.6899 0.105832ZM47.9816 4.74449C47.4355 4.74449 46.992 4.56775 46.647 4.21427C46.2703 3.81316 46.0776 3.28294 46.0692 2.62677C46.0692 1.94627 46.2417 1.36736 46.5909 0.88159C47.0164 0.301625 47.5773 0.00740832 48.2758 0C48.8653 0.00529166 49.3299 0.200026 49.6728 0.586317C50.0189 0.975783 50.1914 1.48696 50.1945 2.11666C50.1945 2.79611 50.021 3.37713 49.6728 3.86079C49.2484 4.44605 48.6854 4.74026 47.9816 4.74449ZM48.1911 1.49542C48.0861 1.4949 47.9825 1.51939 47.8888 1.56688C47.7951 1.61436 47.7141 1.68346 47.6524 1.76847C47.5074 1.94521 47.4344 2.17487 47.4344 2.45533C47.4344 2.69028 47.4916 2.88078 47.6112 3.02577C47.7202 3.175 47.8736 3.24802 48.0684 3.24802C48.1762 3.2471 48.2821 3.21981 48.3769 3.16852C48.4717 3.11723 48.5526 3.04352 48.6123 2.9538C48.7548 2.75186 48.8293 2.50982 48.8251 2.26271C48.8198 2.032 48.7616 1.84679 48.6483 1.70497C48.5915 1.63942 48.5213 1.58681 48.4424 1.55066C48.3636 1.51452 48.2779 1.49567 48.1911 1.49542ZM51.6191 0.105832H52.996L53.1335 1.52188C53.1663 1.85631 53.1865 2.20556 53.1939 2.56751C53.2679 2.24472 53.3685 1.91663 53.4965 1.5822L54.0617 0.104774H55.573L53.4965 4.62067H52.2625L51.6191 0.105832ZM56.8419 0.105832H59.4475L59.2623 1.33032H58.0241L57.9532 1.76741H59.1195L58.9427 2.91147H57.7796L57.7045 3.39724H59.0528L58.8655 4.62173H56.1455L56.8419 0.105832ZM64.0756 0.105832H65.4758L64.7731 4.62173H63.3708L64.0756 0.105832ZM67.5152 1.47848H66.7035L66.9215 0.105832H69.9081L69.6964 1.47848H68.909L68.419 4.62173H67.0072L67.5152 1.47848ZM75.1415 0.105832H76.6507L77.1439 4.62173H75.7924L75.766 4.02166H74.8505L74.6452 4.62173H73.1604L75.1415 0.105832ZM75.713 2.95168L75.6961 2.46697C75.6844 2.26646 75.6791 2.06563 75.6802 1.86478L75.6834 1.55045C75.6283 1.76957 75.5655 1.98666 75.495 2.20132L75.2262 2.95062H75.713V2.95168ZM79.3071 1.47848H78.4943L78.7113 0.105832H81.699L81.4862 1.47848H80.6988L80.2088 4.62173H78.7981L79.3071 1.47848ZM110.221 8.13856C111.579 8.13856 112.509 8.11952 113.012 8.07824C113.012 8.78944 113.025 9.74512 113.049 10.9484C113.012 11.0278 112.929 11.0733 112.801 11.086C112.673 11.1104 112.541 11.0899 112.427 11.0278C112.282 9.88799 111.86 9.24346 111.171 9.09212C110.63 8.9756 110.077 8.91882 109.524 8.92279H108.517C108.129 8.91115 107.895 8.95983 107.819 9.07202C107.721 9.19796 107.68 9.53451 107.693 10.0838V13.6853C107.693 13.9287 107.717 14.0758 107.769 14.1213C107.827 14.1869 107.957 14.2208 108.161 14.2208H109.321C110.159 14.2356 110.721 14.188 111.008 14.0822C111.295 13.989 111.468 13.7435 111.525 13.3382L111.679 12.6545C111.721 12.614 111.77 12.5826 111.824 12.5624C111.878 12.5421 111.936 12.5335 111.994 12.537C112.122 12.5497 112.213 12.5973 112.263 12.6735C112.22 13.3398 112.201 14.0073 112.204 14.6748C112.204 15.4167 112.223 16.1078 112.263 16.746C112.213 16.8243 112.122 16.8635 111.994 16.8635C111.88 16.8707 111.768 16.8353 111.679 16.764L111.525 15.9829C111.467 15.5903 111.295 15.3363 111.008 15.2241C110.722 15.131 110.159 15.0918 109.321 15.1045H108.161C107.957 15.1045 107.827 15.1257 107.769 15.1648C107.717 15.2368 107.693 15.3987 107.693 15.6485V18.4435C107.693 19.4564 107.765 20.0871 107.914 20.3284C108.055 20.5803 108.35 20.7041 108.794 20.7041L109.619 20.8036C109.699 20.8714 109.738 20.973 109.738 21.1095C109.712 21.2502 109.658 21.3413 109.58 21.3804C108.565 21.3505 107.55 21.3339 106.535 21.3307C105.654 21.3307 104.755 21.3476 103.841 21.3804C103.763 21.3413 103.724 21.2481 103.724 21.1053C103.724 20.9687 103.75 20.8671 103.802 20.7994L104.232 20.7369C104.691 20.7105 104.991 20.5718 105.129 20.3231C105.264 20.0797 105.332 19.4511 105.332 18.4361V11.0035C105.332 9.98218 105.264 9.34719 105.129 9.09742C104.991 8.84024 104.691 8.70583 104.232 8.69207L103.976 8.65291C103.922 8.55759 103.895 8.44999 103.895 8.34071C103.895 8.2063 103.935 8.11846 104.015 8.07824C104.839 8.11407 105.664 8.13101 106.489 8.12904L110.221 8.13856ZM123.279 18.1684C123.279 18.7843 123.307 19.3093 123.363 19.7336C123.424 20.2025 123.572 20.4449 123.806 20.4597C124.122 20.4597 124.428 20.4099 124.725 20.3104C124.823 20.3665 124.875 20.4692 124.875 20.6163C124.877 20.6985 124.858 20.7799 124.819 20.8523C124.779 20.9246 124.722 20.9852 124.651 21.028C124.168 21.0714 123.593 21.1603 122.927 21.2947C122.616 21.347 122.308 21.4173 122.006 21.5053C121.736 21.5993 121.473 21.7085 121.216 21.8323C121.11 21.8037 121.047 21.7328 121.019 21.6196C121.073 21.3423 121.095 21.0777 121.082 20.8301C121.069 20.6671 120.999 20.5867 120.877 20.5867C120.435 20.8639 119.986 21.1052 119.526 21.3106C119.038 21.5027 118.521 21.6076 117.997 21.6207C117.068 21.6037 116.424 21.3518 116.058 20.8534C115.665 20.3485 115.475 19.6522 115.491 18.7579V15.4072C115.491 14.6759 115.452 14.1975 115.378 13.971C115.311 13.7647 115.138 13.6345 114.871 13.5784L114.585 13.5022C114.515 13.4113 114.48 13.2981 114.487 13.1836C114.487 13.0513 114.535 12.973 114.626 12.9455C115.992 12.8873 116.962 12.7592 117.538 12.5613C117.652 12.5825 117.725 12.646 117.751 12.7518C117.71 12.973 117.689 13.5826 117.689 14.5817V17.889C117.674 18.5356 117.777 19.0986 117.999 19.5823C118.131 19.8225 118.313 20.0056 118.541 20.1337C118.774 20.2829 119.074 20.357 119.434 20.357C119.965 20.357 120.432 20.175 120.835 19.813C120.936 19.696 121.007 19.5561 121.041 19.4056C121.076 19.1417 121.089 18.8757 121.083 18.6097V15.35C121.083 14.6907 121.035 14.2526 120.938 14.0398C120.814 13.8472 120.549 13.7107 120.148 13.626L119.807 13.5181C119.735 13.4461 119.699 13.3403 119.699 13.1974C119.699 13.0863 119.741 12.9953 119.825 12.9328C120.508 12.9088 121.19 12.8668 121.87 12.8069C122.488 12.737 122.907 12.6534 123.135 12.555C123.245 12.5772 123.313 12.6397 123.339 12.7476C123.3 13.1656 123.279 13.7731 123.279 14.5732V18.1684ZM126.538 15.5998C126.538 15.1352 126.516 14.7912 126.474 14.5722C126.433 14.3721 126.275 14.2039 126.007 14.062L125.745 13.9033C125.713 13.8226 125.698 13.736 125.703 13.6493C125.7 13.5654 125.726 13.483 125.775 13.4154C126.797 13.0704 127.679 12.6841 128.425 12.2576C128.564 12.2576 128.661 12.3222 128.714 12.4481C128.686 12.8799 128.673 13.2027 128.673 13.4133C128.673 13.5826 128.743 13.6673 128.89 13.6673C129.227 13.4133 129.573 13.1625 129.922 12.9148C130.258 12.6979 130.604 12.5783 130.956 12.5571C131.721 12.6068 132.109 12.9561 132.124 13.6048C132.109 14.006 131.99 14.3139 131.762 14.5245C131.54 14.7368 131.243 14.8547 130.936 14.8537C130.733 14.8548 130.535 14.7943 130.367 14.6801C130.113 14.5065 129.904 14.3912 129.739 14.3372C129.55 14.3129 129.422 14.2959 129.357 14.2959C128.914 14.2959 128.708 14.8124 128.737 15.8485V18.7801C128.722 19.559 128.771 20.066 128.89 20.2999C128.987 20.556 129.211 20.6904 129.562 20.7031L130.389 20.7877C130.473 20.8576 130.517 20.9634 130.517 21.1063C130.488 21.2513 130.432 21.3465 130.347 21.3899C129.428 21.3591 128.508 21.3411 127.588 21.336C126.908 21.336 126.176 21.355 125.395 21.3899C125.302 21.3465 125.259 21.2513 125.259 21.1063C125.259 20.9634 125.292 20.8587 125.354 20.7877L125.729 20.7253C126.091 20.6756 126.32 20.5327 126.415 20.2977C126.497 20.0639 126.54 19.5559 126.54 18.7727V15.5998H126.538ZM135.671 18.7727C135.656 19.5537 135.706 20.0607 135.825 20.2956C135.923 20.5517 136.14 20.701 136.478 20.7444L136.799 20.7856C136.884 20.8555 136.927 20.9613 136.927 21.1042C136.898 21.2492 136.842 21.3444 136.758 21.3878C136.013 21.3518 135.269 21.3338 134.523 21.3338C133.87 21.3338 133.105 21.3529 132.235 21.3878C132.151 21.3444 132.109 21.2492 132.109 21.1042C132.109 20.9613 132.138 20.8565 132.196 20.7856L132.663 20.7232C133.021 20.6735 133.25 20.5306 133.347 20.2956C133.429 20.0617 133.47 19.5558 133.47 18.7737V15.6114C133.47 15.1426 133.449 14.7986 133.408 14.5775C133.367 14.3785 133.209 14.207 132.939 14.0673L132.681 13.9086C132.648 13.8274 132.633 13.74 132.638 13.6525C132.638 13.5593 132.659 13.481 132.702 13.4186C133.65 13.118 134.568 12.7289 135.443 12.2565C135.58 12.2714 135.671 12.3264 135.712 12.4259C135.686 12.8767 135.671 13.2069 135.671 13.4196C135.671 13.5456 135.735 13.6186 135.868 13.6324C136.339 13.335 136.789 13.082 137.215 12.8757C137.607 12.683 138.119 12.5762 138.75 12.555C139.609 12.5762 140.249 12.8418 140.677 13.353C141.067 13.8864 141.262 14.5806 141.262 15.4411V18.7727C141.247 19.5537 141.297 20.0607 141.407 20.2946C141.511 20.5306 141.732 20.6724 142.068 20.7221L142.554 20.7846C142.639 20.8544 142.682 20.9603 142.682 21.1031C142.651 21.2481 142.595 21.3434 142.513 21.3868C141.718 21.3524 140.923 21.3344 140.127 21.3328C139.439 21.3328 138.726 21.3518 137.978 21.3868C137.895 21.3434 137.852 21.2481 137.852 21.1031C137.852 20.9603 137.88 20.8555 137.939 20.7846L138.257 20.7433C138.609 20.6999 138.838 20.5507 138.941 20.2946C139.023 20.0586 139.065 19.5506 139.065 18.7695V15.803C139.065 15.2262 138.943 14.7574 138.701 14.3954C138.434 14.0335 137.987 13.844 137.367 13.8292C136.677 13.8578 136.209 14.0832 135.97 14.5034C135.86 14.6727 135.78 14.8463 135.732 15.0241C135.691 15.1955 135.67 15.4834 135.67 15.8877V18.7727H135.671ZM146.711 18.7727C146.699 19.5537 146.748 20.0649 146.866 20.2977C146.963 20.5338 147.178 20.6756 147.514 20.7232L147.897 20.7877C147.981 20.8576 148.025 20.9634 148.025 21.1042C147.996 21.2513 147.938 21.3465 147.855 21.3899C146.361 21.3183 144.864 21.3183 143.37 21.3899C143.277 21.3465 143.231 21.2513 143.231 21.1042C143.231 20.9634 143.264 20.8587 143.329 20.7877L143.703 20.7232C144.063 20.6756 144.293 20.5327 144.387 20.2977C144.472 20.0617 144.513 19.5537 144.513 18.7727V15.6019C144.513 15.1331 144.492 14.787 144.449 14.5658C144.409 14.3669 144.252 14.1975 143.982 14.0557L143.721 13.8948C143.688 13.8138 143.673 13.7263 143.678 13.6387C143.678 13.5477 143.699 13.4694 143.743 13.4048C144.907 13.0291 145.818 12.6396 146.484 12.2407C146.541 12.2459 146.596 12.2639 146.646 12.2931C146.695 12.3224 146.737 12.3623 146.769 12.41C146.73 13.2885 146.71 14.1679 146.711 15.0474V18.7727ZM145.593 9.68902C145.181 9.68902 144.855 9.55144 144.615 9.2731C144.369 9.02969 144.244 8.71324 144.244 8.31849C144.244 7.92055 144.368 7.59247 144.615 7.33635C144.855 7.08553 145.181 6.96064 145.593 6.96064C145.998 6.96064 146.326 7.08659 146.581 7.33635C146.823 7.59247 146.941 7.92055 146.941 8.31849C146.941 8.71324 146.823 9.02863 146.581 9.2731C146.327 9.55144 145.998 9.68902 145.593 9.68902ZM152.288 13.8028C152.101 13.8028 151.997 13.8313 151.969 13.8874C151.913 13.9954 151.884 14.2123 151.884 14.5362V17.8625C151.87 18.5504 151.963 19.142 152.164 19.6405C152.356 20.1506 152.782 20.4131 153.437 20.4279C153.815 20.4279 154.152 20.2956 154.45 20.0332C154.665 20.0617 154.751 20.2088 154.719 20.4692C154.512 20.7645 154.183 21.0269 153.73 21.2566C153.271 21.4884 152.709 21.6101 152.043 21.627C151.568 21.627 151.171 21.5445 150.85 21.3815C150.559 21.2826 150.306 21.0927 150.131 20.8396C149.953 20.5827 149.837 20.2888 149.79 19.9802C149.719 19.6402 149.684 19.2936 149.686 18.9463V14.5785C149.686 14.2102 149.671 13.9816 149.645 13.8885C149.589 13.8324 149.476 13.8038 149.304 13.8038H148.558C148.443 13.7319 148.389 13.6366 148.389 13.517C148.379 13.4638 148.384 13.4091 148.403 13.3583C148.421 13.3076 148.453 13.2627 148.495 13.2281C149.187 12.9487 149.741 12.6449 150.158 12.3211C150.371 12.156 150.584 11.9634 150.797 11.7422C150.988 11.521 151.164 11.267 151.32 10.9728C151.43 10.9082 151.544 10.8881 151.659 10.9082C151.77 10.9368 151.852 10.9929 151.904 11.0797V12.3804C151.892 12.5433 151.913 12.6513 151.969 12.701C152.01 12.7592 152.124 12.7857 152.308 12.7857H154.407C154.517 12.8577 154.57 13.0132 154.57 13.2471C154.558 13.5054 154.462 13.6916 154.293 13.8049H152.288V13.8028ZM163.744 18.1684C163.744 18.7843 163.77 19.3093 163.827 19.7336C163.889 20.2025 164.035 20.4449 164.271 20.4597C164.585 20.4597 164.893 20.4099 165.189 20.3104C165.288 20.3665 165.336 20.4692 165.336 20.6163C165.339 20.6984 165.32 20.7797 165.281 20.8521C165.242 20.9244 165.185 20.9851 165.115 21.028C164.629 21.0714 164.056 21.1603 163.393 21.2947C163.081 21.347 162.772 21.4173 162.469 21.5053C162.199 21.5997 161.935 21.7089 161.677 21.8323C161.576 21.8037 161.51 21.7328 161.482 21.6196C161.538 21.3423 161.559 21.0777 161.547 20.8301C161.53 20.6671 161.464 20.5867 161.338 20.5867C160.898 20.8639 160.449 21.1052 159.989 21.3106C159.502 21.5029 158.985 21.6078 158.462 21.6207C157.534 21.6037 156.885 21.3518 156.521 20.8534C156.128 20.3485 155.94 19.6522 155.955 18.7579V15.4072C155.955 14.6759 155.916 14.1975 155.841 13.971C155.774 13.7647 155.605 13.6345 155.337 13.5784L155.048 13.5022C154.983 13.4281 154.952 13.3202 154.952 13.1836C154.952 13.0513 154.998 12.973 155.091 12.9455C156.455 12.8873 157.427 12.7592 157.999 12.5613C158.117 12.5825 158.188 12.646 158.216 12.7518C158.173 12.973 158.152 13.5826 158.152 14.5817V17.889C158.137 18.5356 158.241 19.0986 158.464 19.5823C158.596 19.8225 158.776 20.0056 159.004 20.1337C159.24 20.2829 159.537 20.357 159.897 20.357C160.428 20.357 160.897 20.175 161.298 19.813C161.401 19.697 161.472 19.5568 161.505 19.4056C161.531 19.2447 161.548 18.978 161.548 18.6097V15.35C161.548 14.6907 161.498 14.2526 161.401 14.0398C161.277 13.8472 161.015 13.7107 160.611 13.626L160.271 13.5181C160.199 13.4461 160.163 13.3403 160.163 13.1974C160.163 13.0863 160.206 12.9953 160.291 12.9328C160.973 12.9087 161.655 12.8667 162.335 12.8069C162.949 12.737 163.373 12.6534 163.598 12.555C163.708 12.5772 163.776 12.6397 163.804 12.7476C163.765 13.1656 163.744 13.7731 163.744 14.5732V18.1684ZM167.002 15.5998C167.002 15.1352 166.979 14.7912 166.937 14.5722C166.898 14.3721 166.74 14.2039 166.468 14.062L166.21 13.9033C166.177 13.8228 166.162 13.7361 166.167 13.6493C166.167 13.5583 166.191 13.48 166.238 13.4154C167.262 13.0704 168.145 12.6841 168.891 12.2576C168.953 12.2551 169.014 12.2721 169.066 12.3063C169.118 12.3405 169.157 12.3901 169.18 12.4481C169.151 12.8799 169.134 13.2027 169.134 13.4133C169.134 13.5826 169.208 13.6673 169.351 13.6673C169.69 13.4133 170.034 13.1625 170.387 12.9148C170.724 12.6979 171.07 12.5783 171.419 12.5571C172.182 12.6068 172.573 12.9561 172.585 13.6048C172.573 14.006 172.453 14.3139 172.225 14.5245C172.003 14.7365 171.707 14.8543 171.399 14.8537C171.196 14.8545 170.998 14.794 170.831 14.6801C170.577 14.5065 170.366 14.3912 170.202 14.3372C170.016 14.3129 169.888 14.2959 169.82 14.2959C169.378 14.2959 169.171 14.8124 169.2 15.8485V18.7801C169.185 19.559 169.239 20.066 169.353 20.2999C169.453 20.556 169.674 20.6904 170.025 20.7031L170.85 20.7877C170.936 20.8576 170.98 20.9634 170.98 21.1063C170.951 21.2513 170.895 21.3465 170.81 21.3899C169.891 21.3591 168.971 21.3411 168.051 21.336C167.371 21.336 166.642 21.355 165.859 21.3899C165.77 21.3465 165.722 21.2513 165.722 21.1063C165.722 20.9634 165.753 20.8587 165.819 20.7877L166.194 20.7253C166.554 20.6756 166.781 20.5327 166.878 20.2977C166.96 20.0639 167.004 19.5559 167.004 18.7727V15.5998H167.002ZM174.761 16.2295C174.577 16.2295 174.458 16.2359 174.404 16.2507C174.347 16.2941 174.319 16.3787 174.319 16.5068C174.319 17.4974 174.623 18.3134 175.228 18.9579C175.805 19.6299 176.561 19.9728 177.503 19.9876C178.363 20.0162 179.041 19.6585 179.535 18.9145C179.589 18.9003 179.644 18.8988 179.698 18.91C179.752 18.9212 179.802 18.9448 179.845 18.9791C179.893 19.0084 179.931 19.0493 179.958 19.0978C179.986 19.1463 180 19.2008 180 19.2563C179.842 19.652 179.619 20.0186 179.341 20.3411C179.075 20.6256 178.768 20.8695 178.432 21.065C177.772 21.4333 177.107 21.6185 176.432 21.6185C175.196 21.6016 174.216 21.1931 173.495 20.3845C172.754 19.5929 172.373 18.5716 172.352 17.3249C172.352 16.0496 172.747 14.9479 173.537 14.0197C174.3 13.0767 175.391 12.5867 176.813 12.5518C177.626 12.5518 178.349 12.7973 178.988 13.2852C179.633 13.7879 179.964 14.5108 179.979 15.4516C179.979 15.6294 179.944 15.7967 179.875 15.9543C179.745 16.1364 179.257 16.2295 178.414 16.2295H174.761ZM176.698 15.3744C177.275 15.3744 177.622 15.3246 177.739 15.2252C177.876 15.1257 177.944 14.9733 177.944 14.7658C177.944 14.369 177.83 14.0324 177.605 13.7551C177.371 13.5128 177.022 13.3847 176.555 13.3731C176.208 13.3731 175.9 13.4429 175.638 13.5837C175.38 13.7095 175.151 13.8876 174.965 14.1065C174.595 14.5616 174.41 14.9331 174.41 15.2252C174.395 15.3246 174.501 15.3744 174.72 15.3744H176.698Z" fill="#969696"/>
</svg>
